<?xml version="1.0" standalone="no"?>
<!DOCTYPE svg PUBLIC "-//W3C//DTD SVG 20010904//EN"
 "http://www.w3.org/TR/2001/REC-SVG-20010904/DTD/svg10.dtd">
<svg version="1.0" xmlns="http://www.w3.org/2000/svg"
 width="400.000000pt" height="400.000000pt" viewBox="0 0 400.000000 400.000000"
 preserveAspectRatio="xMidYMid meet">

<g transform="translate(0.000000,400.000000) scale(0.100000,-0.100000)"
fill="#000000" stroke="none">
<path d="M0 2000 l0 -2000 2000 0 2000 0 0 2000 0 2000 -2000 0 -2000 0 0
-2000z m2163 654 c282 -49 600 -218 917 -488 142 -121 145 -124 145 -166 0
-22 -8 -43 -20 -56 -42 -42 -164 -143 -261 -216 -147 -111 -190 -125 -269 -89
-45 20 -102 79 -110 114 -4 13 3 56 14 97 47 169 15 333 -95 487 -149 209
-433 310 -659 233 -110 -37 -144 -63 -145 -115 0 -42 103 -141 195 -186 98
-48 146 -47 297 10 162 61 170 55 117 -89 -54 -147 -60 -173 -54 -217 12 -85
61 -159 197 -299 70 -73 128 -138 128 -146 -1 -40 -16 -61 -64 -86 -254 -132
-552 -149 -849 -46 -249 87 -515 254 -785 493 -41 35 -78 75 -83 89 -16 42 15
81 151 192 164 132 260 197 306 206 51 9 114 -18 164 -72 47 -51 48 -61 15
-199 -65 -273 132 -583 430 -674 102 -32 196 -37 280 -16 142 36 195 72 195
133 0 71 -184 206 -297 218 -49 6 -67 1 -228 -60 -127 -47 -133 -37 -74 122
57 151 59 206 9 305 -26 54 -61 96 -157 193 -159 161 -164 183 -44 243 76 38
172 70 256 86 98 18 274 18 378 -1z"/>
</g>
</svg>
